<svg width="17" height="14" viewBox="0 0 17 14" fill="none" xmlns="http://www.w3.org/2000/svg">
<path d="M6.59104 9.65023C6.59104 10.4122 6.205 11.659 5.29125 11.659C4.3775 11.659 3.99146 10.4122 3.99146 9.65023C3.99146 8.88828 4.3775 7.64144 5.29125 7.64144C6.205 7.64144 6.59104 8.88828 6.59104 9.65023V9.65023ZM17 7.80914C17 8.97213 16.8867 10.2044 16.3802 11.2726C15.0379 14.0652 11.3475 13.9996 8.70542 13.9996C6.02083 13.9996 2.11083 14.098 0.715417 11.2726C0.198333 10.2153 0 8.97213 0 7.80914C0 6.28158 0.492292 4.83788 1.46979 3.6676C1.28562 3.09157 1.19708 2.48638 1.19708 1.88849C1.19708 1.10465 1.37063 0.710916 1.71417 0C3.31854 0 4.34562 0.328115 5.5675 1.31246C6.59458 1.06091 7.65 0.947888 8.70896 0.947888C9.66521 0.947888 10.6285 1.05361 11.5565 1.2833C12.7606 0.309886 13.7877 0 15.3744 0C15.7215 0.710916 15.8915 1.10465 15.8915 1.88849C15.8915 2.48638 15.7994 3.08064 15.6187 3.64572C16.5927 4.82694 17 6.28158 17 7.80914V7.80914ZM14.7227 9.65023C14.7227 8.04976 13.7771 6.63887 12.1196 6.63887C11.4502 6.63887 10.8092 6.76282 10.1363 6.85761C9.60854 6.94146 9.08083 6.97427 8.53896 6.97427C8.00063 6.97427 7.47292 6.94146 6.94167 6.85761C6.27937 6.76282 5.63125 6.63887 4.95833 6.63887C3.30083 6.63887 2.35521 8.04976 2.35521 9.65023C2.35521 12.8512 5.20271 13.3434 7.68187 13.3434H9.38896C11.8788 13.3434 14.7227 12.8548 14.7227 9.65023V9.65023ZM11.7973 7.64144C10.8835 7.64144 10.4975 8.88828 10.4975 9.65023C10.4975 10.4122 10.8835 11.659 11.7973 11.659C12.711 11.659 13.0971 10.4122 13.0971 9.65023C13.0971 8.88828 12.711 7.64144 11.7973 7.64144Z" fill="#FFD173" fill-opacity="0.68"/>
</svg>
