<svg width="14" height="11" viewBox="0 0 14 11" fill="none" xmlns="http://www.w3.org/2000/svg">
<path d="M14 0.916772V10.0833C14 10.6035 13.6216 11 13.125 11H12.25V2.68088L7 6.63167L1.75 2.68088V11H0.875C0.378438 11 0 10.6035 0 10.0833V0.916772C0 0.656442 0.093625 0.427278 0.250688 0.265029C0.332488 0.179288 0.429909 0.111653 0.53716 0.0661435C0.64441 0.020634 0.7593 -0.00182041 0.875 0.000115304H1.16681L7 4.43078L12.8332 0.000115304H13.125C13.3735 0.000115304 13.5923 0.0981976 13.7493 0.265029C13.9064 0.427278 14 0.656442 14 0.916772Z" fill="#FFD173" fill-opacity="0.68"/>
</svg>
